<svg width="32" height="9" viewBox="0 0 32 9" fill="none" xmlns="http://www.w3.org/2000/svg">
<path d="M6.62003 7.80653C6.53132 7.88046 6.36498 7.98026 6.12103 8.10593C5.88447 8.2316 5.59246 8.34249 5.24501 8.43859C4.89756 8.5347 4.51315 8.57905 4.09178 8.57166C3.44862 8.55687 2.872 8.44229 2.36192 8.22791C1.85923 8.00613 1.43046 7.70673 1.07562 7.32971C0.728166 6.95269 0.462034 6.52023 0.277221 6.03232C0.0924069 5.54441 0 5.02324 0 4.4688C0 3.84782 0.0924069 3.2786 0.277221 2.76112C0.469427 2.24364 0.739255 1.79639 1.0867 1.41937C1.44155 1.04235 1.86292 0.750344 2.35083 0.543353C2.83874 0.336361 3.37839 0.232866 3.9698 0.232866C4.51685 0.232866 5.00106 0.306791 5.42243 0.454642C5.84381 0.602493 6.18756 0.761432 6.45369 0.931461L5.82163 2.45063C5.63682 2.31017 5.38917 2.16602 5.07868 2.01817C4.77559 1.86292 4.42444 1.7853 4.02524 1.7853C3.71476 1.7853 3.41536 1.85183 3.12705 1.9849C2.84613 2.11057 2.59478 2.29169 2.37301 2.52825C2.15862 2.76481 1.9886 3.04203 1.86292 3.35991C1.73725 3.6704 1.67441 4.01046 1.67441 4.38008C1.67441 4.77189 1.72986 5.13043 1.84074 5.4557C1.95903 5.78097 2.12536 6.06189 2.33974 6.29845C2.55413 6.52762 2.80917 6.70504 3.10487 6.83071C3.40796 6.95639 3.74802 7.01922 4.12504 7.01922C4.5612 7.01922 4.93453 6.949 5.24501 6.80854C5.5555 6.66808 5.79206 6.52023 5.9547 6.36498L6.62003 7.80653Z" fill="black"/>
<path d="M7.31048 8.48295L10.992 0H11.0807L14.7622 8.48295H12.8992L10.5484 2.51716L11.7127 1.71877L8.89618 8.48295H7.31048ZM9.82764 5.53332H12.2783L12.8438 6.88616H9.32864L9.82764 5.53332Z" fill="black"/>
<path d="M22.8269 8.48295C22.7235 8.48295 22.5682 8.48295 22.3612 8.48295C22.1616 8.48295 21.9546 8.48295 21.7402 8.48295C21.5259 8.48295 21.341 8.48295 21.1858 8.48295C21.0379 8.48295 20.964 8.48295 20.964 8.48295L17.3712 3.64822C17.2973 3.54473 17.2049 3.40427 17.094 3.22685C16.9831 3.04203 16.887 2.83874 16.8057 2.61696C16.7244 2.38779 16.6837 2.15862 16.6837 1.92946C16.6837 1.63375 16.7577 1.34175 16.9055 1.05344C17.0608 0.757736 17.2936 0.513782 17.6041 0.321576C17.922 0.121977 18.3212 0.022178 18.8017 0.022178C19.3266 0.022178 19.7886 0.12937 20.1878 0.343754C20.587 0.558137 20.9049 0.816877 21.1414 1.11997L20.332 2.19559C20.1028 1.94424 19.881 1.74464 19.6666 1.59679C19.4596 1.44894 19.2563 1.37501 19.0567 1.37501C18.8054 1.37501 18.6243 1.44894 18.5134 1.59679C18.4025 1.74464 18.3471 1.90728 18.3471 2.0847C18.3471 2.18819 18.3729 2.30278 18.4247 2.42845C18.4838 2.54673 18.543 2.65762 18.6021 2.76112C18.6612 2.85722 18.7019 2.92375 18.7241 2.96072L22.8269 8.48295ZM18.336 4.76819C18.1586 4.76819 17.9922 4.80516 17.837 4.87908C17.6817 4.94561 17.545 5.03802 17.4267 5.1563C17.3084 5.27458 17.216 5.40765 17.1495 5.5555C17.0903 5.70335 17.0608 5.85859 17.0608 6.02123C17.0608 6.2504 17.1162 6.45369 17.2271 6.63112C17.3454 6.80114 17.5043 6.93421 17.7039 7.03031C17.9035 7.12642 18.1216 7.17447 18.3582 7.17447C18.6021 7.17447 18.8017 7.1412 18.9569 7.07467C19.1196 7.00074 19.2527 6.90464 19.3561 6.78636C19.467 6.66808 19.5557 6.53871 19.6223 6.39825L20.6535 7.25209C20.4539 7.62911 20.1471 7.95069 19.7332 8.21682C19.3266 8.48295 18.7943 8.61602 18.1364 8.61602C17.6263 8.61602 17.1643 8.50882 16.7503 8.29444C16.3363 8.08006 16.0073 7.78435 15.7634 7.40733C15.5194 7.03031 15.3974 6.59785 15.3974 6.10994C15.3974 5.74031 15.4788 5.40026 15.6414 5.08977C15.8114 4.77928 16.0369 4.50945 16.3178 4.28029C16.5987 4.05112 16.9129 3.87 17.2604 3.73693C17.6078 3.59647 17.9626 3.52255 18.3249 3.51516L18.336 4.76819ZM20.7533 3.51516H22.2171L20.842 6.97487L19.6777 6.28736L20.7533 3.51516Z" fill="black"/>
<path d="M23.6612 4.41335C23.6612 3.85152 23.7684 3.31925 23.9828 2.81656C24.1972 2.31387 24.4929 1.87031 24.8699 1.4859C25.2543 1.0941 25.6979 0.787307 26.2005 0.56553C26.7032 0.343754 27.2429 0.232866 27.8195 0.232866C28.3887 0.232866 28.9247 0.343754 29.4274 0.56553C29.9301 0.787307 30.3736 1.0941 30.7581 1.4859C31.1499 1.87031 31.453 2.31387 31.6673 2.81656C31.8891 3.31925 32 3.85152 32 4.41335C32 4.98997 31.8891 5.52963 31.6673 6.03232C31.453 6.53501 31.1499 6.97857 30.7581 7.36298C30.3736 7.74 29.9301 8.0357 29.4274 8.25008C28.9247 8.46447 28.3887 8.57166 27.8195 8.57166C27.2429 8.57166 26.7032 8.46447 26.2005 8.25008C25.6979 8.0357 25.2543 7.74 24.8699 7.36298C24.4929 6.97857 24.1972 6.53501 23.9828 6.03232C23.7684 5.52963 23.6612 4.98997 23.6612 4.41335ZM25.3245 4.41335C25.3245 4.77559 25.3874 5.11564 25.513 5.43352C25.6461 5.74401 25.8272 6.02123 26.0564 6.26518C26.293 6.50175 26.5628 6.68656 26.8659 6.81963C27.1764 6.95269 27.5127 7.01922 27.875 7.01922C28.2224 7.01922 28.544 6.95269 28.8397 6.81963C29.1428 6.68656 29.4052 6.50175 29.627 6.26518C29.8488 6.02123 30.0225 5.74401 30.1482 5.43352C30.2738 5.11564 30.3367 4.77559 30.3367 4.41335C30.3367 4.04372 30.2701 3.69997 30.1371 3.38209C30.0114 3.06421 29.834 2.78699 29.6048 2.55043C29.383 2.30648 29.1206 2.11797 28.8175 1.9849C28.5144 1.85183 28.1854 1.7853 27.8306 1.7853C27.4758 1.7853 27.1468 1.85183 26.8437 1.9849C26.5406 2.11797 26.2745 2.30648 26.0453 2.55043C25.8161 2.78699 25.6387 3.06421 25.513 3.38209C25.3874 3.69997 25.3245 4.04372 25.3245 4.41335Z" fill="black"/>
</svg>
