<svg width="104" height="28" viewBox="0 0 104 28" fill="none" xmlns="http://www.w3.org/2000/svg">
<path d="M21.492 25.344C21.204 25.584 20.664 25.908 19.872 26.316C19.104 26.724 18.156 27.084 17.028 27.396C15.9 27.708 14.652 27.852 13.284 27.828C11.196 27.78 9.324 27.408 7.668 26.712C6.036 25.992 4.644 25.02 3.492 23.796C2.364 22.572 1.5 21.168 0.9 19.584C0.3 18 0 16.308 0 14.508C0 12.492 0.3 10.644 0.9 8.964C1.524 7.284 2.4 5.832 3.528 4.608C4.68 3.384 6.048 2.436 7.632 1.764C9.216 1.092 10.968 0.756001 12.888 0.756001C14.664 0.756001 16.236 0.996001 17.604 1.476C18.972 1.956 20.088 2.472 20.952 3.024L18.9 7.956C18.3 7.5 17.496 7.032 16.488 6.552C15.504 6.048 14.364 5.796 13.068 5.796C12.06 5.796 11.088 6.012 10.152 6.444C9.24 6.852 8.424 7.44 7.704 8.208C7.008 8.976 6.456 9.876 6.048 10.908C5.64 11.916 5.436 13.02 5.436 14.22C5.436 15.492 5.616 16.656 5.976 17.712C6.36 18.768 6.9 19.68 7.596 20.448C8.292 21.192 9.12 21.768 10.08 22.176C11.064 22.584 12.168 22.788 13.392 22.788C14.808 22.788 16.02 22.56 17.028 22.104C18.036 21.648 18.804 21.168 19.332 20.664L21.492 25.344Z" fill="black"/>
<path d="M23.7336 27.54L35.6856 0H35.9736L47.9256 27.54H41.8776L34.2456 8.172L38.0256 5.58L28.8816 27.54H23.7336ZM31.9056 17.964H39.8616L41.6976 22.356H30.2856L31.9056 17.964Z" fill="black"/>
<path d="M74.108 27.54C73.772 27.54 73.268 27.54 72.596 27.54C71.948 27.54 71.276 27.54 70.58 27.54C69.884 27.54 69.284 27.54 68.78 27.54C68.3 27.54 68.06 27.54 68.06 27.54L56.396 11.844C56.156 11.508 55.856 11.052 55.496 10.476C55.136 9.876 54.824 9.216 54.56 8.496C54.296 7.752 54.164 7.008 54.164 6.264C54.164 5.304 54.404 4.356 54.884 3.42C55.388 2.46 56.144 1.668 57.152 1.044C58.184 0.396001 59.48 0.0720012 61.04 0.0720012C62.744 0.0720012 64.244 0.420001 65.54 1.116C66.836 1.812 67.868 2.652 68.636 3.636L66.008 7.128C65.264 6.312 64.544 5.664 63.848 5.184C63.176 4.704 62.516 4.464 61.868 4.464C61.052 4.464 60.464 4.704 60.104 5.184C59.744 5.664 59.564 6.192 59.564 6.768C59.564 7.104 59.648 7.476 59.816 7.884C60.008 8.268 60.2 8.628 60.392 8.964C60.584 9.276 60.716 9.492 60.788 9.612L74.108 27.54ZM59.528 15.48C58.952 15.48 58.412 15.6 57.908 15.84C57.404 16.056 56.96 16.356 56.576 16.74C56.192 17.124 55.892 17.556 55.676 18.036C55.484 18.516 55.388 19.02 55.388 19.548C55.388 20.292 55.568 20.952 55.928 21.528C56.312 22.08 56.828 22.512 57.476 22.824C58.124 23.136 58.832 23.292 59.6 23.292C60.392 23.292 61.04 23.184 61.544 22.968C62.072 22.728 62.504 22.416 62.84 22.032C63.2 21.648 63.488 21.228 63.704 20.772L67.052 23.544C66.404 24.768 65.408 25.812 64.064 26.676C62.744 27.54 61.016 27.972 58.88 27.972C57.224 27.972 55.724 27.624 54.38 26.928C53.036 26.232 51.968 25.272 51.176 24.048C50.384 22.824 49.988 21.42 49.988 19.836C49.988 18.636 50.252 17.532 50.78 16.524C51.332 15.516 52.064 14.64 52.976 13.896C53.888 13.152 54.908 12.564 56.036 12.132C57.164 11.676 58.316 11.436 59.492 11.412L59.528 15.48ZM67.376 11.412H72.128L67.664 22.644L63.884 20.412L67.376 11.412Z" fill="black"/>
<path d="M76.8164 14.328C76.8164 12.504 77.1644 10.776 77.8604 9.144C78.5564 7.512 79.5164 6.072 80.7404 4.824C81.9884 3.552 83.4284 2.556 85.0604 1.836C86.6924 1.116 88.4444 0.756001 90.3164 0.756001C92.1644 0.756001 93.9044 1.116 95.5364 1.836C97.1684 2.556 98.6084 3.552 99.8564 4.824C101.128 6.072 102.112 7.512 102.808 9.144C103.528 10.776 103.888 12.504 103.888 14.328C103.888 16.2 103.528 17.952 102.808 19.584C102.112 21.216 101.128 22.656 99.8564 23.904C98.6084 25.128 97.1684 26.088 95.5364 26.784C93.9044 27.48 92.1644 27.828 90.3164 27.828C88.4444 27.828 86.6924 27.48 85.0604 26.784C83.4284 26.088 81.9884 25.128 80.7404 23.904C79.5164 22.656 78.5564 21.216 77.8604 19.584C77.1644 17.952 76.8164 16.2 76.8164 14.328ZM82.2164 14.328C82.2164 15.504 82.4204 16.608 82.8284 17.64C83.2604 18.648 83.8484 19.548 84.5924 20.34C85.3604 21.108 86.2364 21.708 87.2204 22.14C88.2284 22.572 89.3204 22.788 90.4964 22.788C91.6244 22.788 92.6684 22.572 93.6284 22.14C94.6124 21.708 95.4644 21.108 96.1844 20.34C96.9044 19.548 97.4684 18.648 97.8764 17.64C98.2844 16.608 98.4884 15.504 98.4884 14.328C98.4884 13.128 98.2724 12.012 97.8404 10.98C97.4324 9.948 96.8564 9.048 96.1124 8.28C95.3924 7.488 94.5404 6.876 93.5564 6.444C92.5724 6.012 91.5044 5.796 90.3524 5.796C89.2004 5.796 88.1324 6.012 87.1484 6.444C86.1644 6.876 85.3004 7.488 84.5564 8.28C83.8124 9.048 83.2364 9.948 82.8284 10.98C82.4204 12.012 82.2164 13.128 82.2164 14.328Z" fill="black"/>
</svg>
